<mxfile host="app.diagrams.net" agent="Mozilla/5.0 (Windows NT 10.0; Win64; x64) AppleWebKit/537.36 (KHTML, like Gecko) Chrome/127.0.0.0 Safari/537.36 Edg/127.0.0.0" version="24.7.6" pages="2">
  <diagram name="Venta - Actual" id="7aivFQpvPPGwh6RhPbaY">
    <mxGraphModel dx="1111" dy="1046" grid="1" gridSize="10" guides="1" tooltips="1" connect="1" arrows="1" fold="1" page="1" pageScale="1" pageWidth="827" pageHeight="1169" math="0" shadow="0">
      <root>
        <mxCell id="0" />
        <mxCell id="1" parent="0" />
        <mxCell id="pnoqDllVbGefBGasWEdO-1" value="Flujo de venta de boletas - Actual" style="shape=table;childLayout=tableLayout;startSize=40;collapsible=0;recursiveResize=0;expand=0;fontSize=16;fontStyle=1;whiteSpace=wrap;" parent="1" vertex="1">
          <mxGeometry x="140" y="30" width="770" height="470" as="geometry" />
        </mxCell>
        <mxCell id="pnoqDllVbGefBGasWEdO-2" value="Cliente" style="shape=tableRow;horizontal=0;swimlaneHead=0;swimlaneBody=0;top=0;left=0;strokeColor=inherit;bottom=0;right=0;dropTarget=0;fontStyle=1;fillColor=none;points=[[0,0.5],[1,0.5]];portConstraint=eastwest;startSize=40;collapsible=0;recursiveResize=0;expand=0;fontSize=16;" parent="pnoqDllVbGefBGasWEdO-1" vertex="1">
          <mxGeometry y="40" width="770" height="215" as="geometry" />
        </mxCell>
        <mxCell id="pnoqDllVbGefBGasWEdO-3" value="Estado inicial" style="swimlane;swimlaneHead=0;swimlaneBody=0;fontStyle=1;strokeColor=inherit;connectable=0;fillColor=none;startSize=40;collapsible=0;recursiveResize=0;expand=0;fontSize=16;" parent="pnoqDllVbGefBGasWEdO-2" vertex="1">
          <mxGeometry x="40" width="244" height="215" as="geometry">
            <mxRectangle width="244" height="215" as="alternateBounds" />
          </mxGeometry>
        </mxCell>
        <mxCell id="Bec3HVNdoNUISOMidx-q-1" value="" style="points=[[0.145,0.145,0],[0.5,0,0],[0.855,0.145,0],[1,0.5,0],[0.855,0.855,0],[0.5,1,0],[0.145,0.855,0],[0,0.5,0]];shape=mxgraph.bpmn.event;html=1;verticalLabelPosition=bottom;labelBackgroundColor=#ffffff;verticalAlign=top;align=center;perimeter=ellipsePerimeter;outlineConnect=0;aspect=fixed;outline=standard;symbol=general;" parent="pnoqDllVbGefBGasWEdO-3" vertex="1">
          <mxGeometry x="10" y="70" width="30" height="30" as="geometry" />
        </mxCell>
        <mxCell id="FgiiflSu3p7hEkr1707w-2" value="Pregunta disponibilidad de boletas" style="points=[[0.25,0,0],[0.5,0,0],[0.75,0,0],[1,0.25,0],[1,0.5,0],[1,0.75,0],[0.75,1,0],[0.5,1,0],[0.25,1,0],[0,0.75,0],[0,0.5,0],[0,0.25,0]];shape=mxgraph.bpmn.task;whiteSpace=wrap;rectStyle=rounded;size=10;html=1;container=1;expand=0;collapsible=0;taskMarker=abstract;" parent="pnoqDllVbGefBGasWEdO-3" vertex="1">
          <mxGeometry x="65" y="60" width="80" height="50" as="geometry" />
        </mxCell>
        <mxCell id="FgiiflSu3p7hEkr1707w-6" style="edgeStyle=orthogonalEdgeStyle;rounded=0;orthogonalLoop=1;jettySize=auto;html=1;entryX=0;entryY=0.5;entryDx=0;entryDy=0;entryPerimeter=0;" parent="pnoqDllVbGefBGasWEdO-3" source="Bec3HVNdoNUISOMidx-q-1" target="FgiiflSu3p7hEkr1707w-2" edge="1">
          <mxGeometry relative="1" as="geometry" />
        </mxCell>
        <mxCell id="pnoqDllVbGefBGasWEdO-4" value="Estado intermedio" style="swimlane;swimlaneHead=0;swimlaneBody=0;fontStyle=1;strokeColor=inherit;connectable=0;fillColor=none;startSize=40;collapsible=0;recursiveResize=0;expand=0;fontSize=16;" parent="pnoqDllVbGefBGasWEdO-2" vertex="1">
          <mxGeometry x="284" width="242" height="215" as="geometry">
            <mxRectangle width="242" height="215" as="alternateBounds" />
          </mxGeometry>
        </mxCell>
        <mxCell id="P8vFjDeXlPCaN-U989TF-3" value="Informa cuantas boletas desea" style="points=[[0.25,0,0],[0.5,0,0],[0.75,0,0],[1,0.25,0],[1,0.5,0],[1,0.75,0],[0.75,1,0],[0.5,1,0],[0.25,1,0],[0,0.75,0],[0,0.5,0],[0,0.25,0]];shape=mxgraph.bpmn.task;whiteSpace=wrap;rectStyle=rounded;size=10;html=1;container=1;expand=0;collapsible=0;taskMarker=abstract;" vertex="1" parent="pnoqDllVbGefBGasWEdO-4">
          <mxGeometry x="76" y="52.5" width="89" height="57.5" as="geometry" />
        </mxCell>
        <mxCell id="pnoqDllVbGefBGasWEdO-5" value="Estado final" style="swimlane;swimlaneHead=0;swimlaneBody=0;fontStyle=1;strokeColor=inherit;connectable=0;fillColor=none;startSize=40;collapsible=0;recursiveResize=0;expand=0;fontSize=16;" parent="pnoqDllVbGefBGasWEdO-2" vertex="1">
          <mxGeometry x="526" width="244" height="215" as="geometry">
            <mxRectangle width="244" height="215" as="alternateBounds" />
          </mxGeometry>
        </mxCell>
        <mxCell id="P8vFjDeXlPCaN-U989TF-15" value="Realiza el pago" style="points=[[0.25,0,0],[0.5,0,0],[0.75,0,0],[1,0.25,0],[1,0.5,0],[1,0.75,0],[0.75,1,0],[0.5,1,0],[0.25,1,0],[0,0.75,0],[0,0.5,0],[0,0.25,0]];shape=mxgraph.bpmn.task;whiteSpace=wrap;rectStyle=rounded;size=10;html=1;container=1;expand=0;collapsible=0;taskMarker=abstract;" vertex="1" parent="pnoqDllVbGefBGasWEdO-5">
          <mxGeometry x="70.5" y="60" width="80" height="50" as="geometry" />
        </mxCell>
        <mxCell id="pnoqDllVbGefBGasWEdO-6" value="Asesor" style="shape=tableRow;horizontal=0;swimlaneHead=0;swimlaneBody=0;top=0;left=0;strokeColor=inherit;bottom=0;right=0;dropTarget=0;fontStyle=1;fillColor=none;points=[[0,0.5],[1,0.5]];portConstraint=eastwest;startSize=40;collapsible=0;recursiveResize=0;expand=0;fontSize=16;verticalAlign=middle;whiteSpace=wrap;" parent="pnoqDllVbGefBGasWEdO-1" vertex="1">
          <mxGeometry y="255" width="770" height="215" as="geometry" />
        </mxCell>
        <mxCell id="pnoqDllVbGefBGasWEdO-7" value="" style="swimlane;swimlaneHead=0;swimlaneBody=0;fontStyle=1;connectable=0;strokeColor=inherit;fillColor=none;startSize=0;collapsible=0;recursiveResize=0;expand=0;fontSize=16;" parent="pnoqDllVbGefBGasWEdO-6" vertex="1">
          <mxGeometry x="40" width="244" height="215" as="geometry">
            <mxRectangle width="244" height="215" as="alternateBounds" />
          </mxGeometry>
        </mxCell>
        <mxCell id="FgiiflSu3p7hEkr1707w-3" value="" style="points=[[0.25,0.25,0],[0.5,0,0],[0.75,0.25,0],[1,0.5,0],[0.75,0.75,0],[0.5,1,0],[0.25,0.75,0],[0,0.5,0]];shape=mxgraph.bpmn.gateway2;html=1;verticalLabelPosition=bottom;labelBackgroundColor=#ffffff;verticalAlign=top;align=center;perimeter=rhombusPerimeter;outlineConnect=0;outline=none;symbol=none;" parent="pnoqDllVbGefBGasWEdO-7" vertex="1">
          <mxGeometry x="80" y="15.01" width="50" height="45" as="geometry" />
        </mxCell>
        <mxCell id="7GJpUrNzofX2kVtQmMbX-1" value="Verifica disponibilidad" style="text;html=1;align=center;verticalAlign=middle;whiteSpace=wrap;rounded=0;" parent="pnoqDllVbGefBGasWEdO-7" vertex="1">
          <mxGeometry x="20" y="30.95" width="40" height="13.12" as="geometry" />
        </mxCell>
        <mxCell id="P8vFjDeXlPCaN-U989TF-1" value="Informa disponibilid&lt;span style=&quot;color: rgba(0, 0, 0, 0); font-family: monospace; font-size: 0px; text-align: start; text-wrap: nowrap;&quot;&gt;%3CmxGraphModel%3E%3Croot%3E%3CmxCell%20id%3D%220%22%2F%3E%3CmxCell%20id%3D%221%22%20parent%3D%220%22%2F%3E%3CmxCell%20id%3D%222%22%20value%3D%22Pregunta%20disponibilidad%20de%20boletas%22%20style%3D%22points%3D%5B%5B0.25%2C0%2C0%5D%2C%5B0.5%2C0%2C0%5D%2C%5B0.75%2C0%2C0%5D%2C%5B1%2C0.25%2C0%5D%2C%5B1%2C0.5%2C0%5D%2C%5B1%2C0.75%2C0%5D%2C%5B0.75%2C1%2C0%5D%2C%5B0.5%2C1%2C0%5D%2C%5B0.25%2C1%2C0%5D%2C%5B0%2C0.75%2C0%5D%2C%5B0%2C0.5%2C0%5D%2C%5B0%2C0.25%2C0%5D%5D%3Bshape%3Dmxgraph.bpmn.task%3BwhiteSpace%3Dwrap%3BrectStyle%3Drounded%3Bsize%3D10%3Bhtml%3D1%3Bcontainer%3D1%3Bexpand%3D0%3Bcollapsible%3D0%3BtaskMarker%3Dabstract%3B%22%20vertex%3D%221%22%20parent%3D%221%22%3E%3CmxGeometry%20x%3D%22243.5%22%20y%3D%22112.5%22%20width%3D%2280%22%20height%3D%2250%22%20as%3D%22geometry%22%2F%3E%3C%2FmxCell%3E%3C%2Froot%3E%3C%2FmxGraphModel%3E&lt;/span&gt;ad y precio por boleta" style="points=[[0.25,0,0],[0.5,0,0],[0.75,0,0],[1,0.25,0],[1,0.5,0],[1,0.75,0],[0.75,1,0],[0.5,1,0],[0.25,1,0],[0,0.75,0],[0,0.5,0],[0,0.25,0]];shape=mxgraph.bpmn.task;whiteSpace=wrap;rectStyle=rounded;size=10;html=1;container=1;expand=0;collapsible=0;taskMarker=abstract;" vertex="1" parent="pnoqDllVbGefBGasWEdO-7">
          <mxGeometry x="150" y="6.26" width="84" height="62.51" as="geometry" />
        </mxCell>
        <mxCell id="P8vFjDeXlPCaN-U989TF-2" value="Informa que no hay disponibilid&lt;span style=&quot;color: rgba(0, 0, 0, 0); font-family: monospace; font-size: 0px; text-align: start; text-wrap: nowrap;&quot;&gt;%3CmxGraphModel%3E%3Croot%3E%3CmxCell%20id%3D%220%22%2F%3E%3CmxCell%20id%3D%221%22%20parent%3D%220%22%2F%3E%3CmxCell%20id%3D%222%22%20value%3D%22Pregunta%20disponibilidad%20de%20boletas%22%20style%3D%22points%3D%5B%5B0.25%2C0%2C0%5D%2C%5B0.5%2C0%2C0%5D%2C%5B0.75%2C0%2C0%5D%2C%5B1%2C0.25%2C0%5D%2C%5B1%2C0.5%2C0%5D%2C%5B1%2C0.75%2C0%5D%2C%5B0.75%2C1%2C0%5D%2C%5B0.5%2C1%2C0%5D%2C%5B0.25%2C1%2C0%5D%2C%5B0%2C0.75%2C0%5D%2C%5B0%2C0.5%2C0%5D%2C%5B0%2C0.25%2C0%5D%5D%3Bshape%3Dmxgraph.bpmn.task%3BwhiteSpace%3Dwrap%3BrectStyle%3Drounded%3Bsize%3D10%3Bhtml%3D1%3Bcontainer%3D1%3Bexpand%3D0%3Bcollapsible%3D0%3BtaskMarker%3Dabstract%3B%22%20vertex%3D%221%22%20parent%3D%221%22%3E%3CmxGeometry%20x%3D%22243.5%22%20y%3D%22112.5%22%20width%3D%2280%22%20height%3D%2250%22%20as%3D%22geometry%22%2F%3E%3C%2FmxCell%3E%3C%2Froot%3E%3C%2FmxGraphModel%3E&lt;/span&gt;ad" style="points=[[0.25,0,0],[0.5,0,0],[0.75,0,0],[1,0.25,0],[1,0.5,0],[1,0.75,0],[0.75,1,0],[0.5,1,0],[0.25,1,0],[0,0.75,0],[0,0.5,0],[0,0.25,0]];shape=mxgraph.bpmn.task;whiteSpace=wrap;rectStyle=rounded;size=10;html=1;container=1;expand=0;collapsible=0;taskMarker=abstract;" vertex="1" parent="pnoqDllVbGefBGasWEdO-7">
          <mxGeometry x="65" y="135" width="80" height="50" as="geometry" />
        </mxCell>
        <mxCell id="P8vFjDeXlPCaN-U989TF-7" style="edgeStyle=orthogonalEdgeStyle;rounded=0;orthogonalLoop=1;jettySize=auto;html=1;entryX=0;entryY=0.5;entryDx=0;entryDy=0;entryPerimeter=0;" edge="1" parent="pnoqDllVbGefBGasWEdO-7" source="FgiiflSu3p7hEkr1707w-3" target="P8vFjDeXlPCaN-U989TF-1">
          <mxGeometry relative="1" as="geometry" />
        </mxCell>
        <mxCell id="P8vFjDeXlPCaN-U989TF-8" style="edgeStyle=orthogonalEdgeStyle;rounded=0;orthogonalLoop=1;jettySize=auto;html=1;entryX=0.5;entryY=0;entryDx=0;entryDy=0;entryPerimeter=0;" edge="1" parent="pnoqDllVbGefBGasWEdO-7" source="FgiiflSu3p7hEkr1707w-3" target="P8vFjDeXlPCaN-U989TF-2">
          <mxGeometry relative="1" as="geometry" />
        </mxCell>
        <mxCell id="P8vFjDeXlPCaN-U989TF-10" value="SI" style="text;html=1;align=center;verticalAlign=middle;whiteSpace=wrap;rounded=0;" vertex="1" parent="pnoqDllVbGefBGasWEdO-7">
          <mxGeometry x="130" y="20.94999999999999" width="10" height="10" as="geometry" />
        </mxCell>
        <mxCell id="P8vFjDeXlPCaN-U989TF-12" value="NO" style="text;html=1;align=center;verticalAlign=middle;whiteSpace=wrap;rounded=0;" vertex="1" parent="pnoqDllVbGefBGasWEdO-7">
          <mxGeometry x="80" y="85" width="20" height="10" as="geometry" />
        </mxCell>
        <mxCell id="pnoqDllVbGefBGasWEdO-8" value="" style="swimlane;swimlaneHead=0;swimlaneBody=0;fontStyle=1;connectable=0;strokeColor=inherit;fillColor=none;startSize=0;collapsible=0;recursiveResize=0;expand=0;fontSize=16;" parent="pnoqDllVbGefBGasWEdO-6" vertex="1">
          <mxGeometry x="284" width="242" height="215" as="geometry">
            <mxRectangle width="242" height="215" as="alternateBounds" />
          </mxGeometry>
        </mxCell>
        <mxCell id="P8vFjDeXlPCaN-U989TF-13" value="Separa las boletas, informa el valor a pagar" style="points=[[0.25,0,0],[0.5,0,0],[0.75,0,0],[1,0.25,0],[1,0.5,0],[1,0.75,0],[0.75,1,0],[0.5,1,0],[0.25,1,0],[0,0.75,0],[0,0.5,0],[0,0.25,0]];shape=mxgraph.bpmn.task;whiteSpace=wrap;rectStyle=rounded;size=10;html=1;container=1;expand=0;collapsible=0;taskMarker=abstract;" vertex="1" parent="pnoqDllVbGefBGasWEdO-8">
          <mxGeometry x="69" y="44.07" width="104" height="69.05" as="geometry" />
        </mxCell>
        <mxCell id="pnoqDllVbGefBGasWEdO-9" value="" style="swimlane;swimlaneHead=0;swimlaneBody=0;fontStyle=1;connectable=0;strokeColor=inherit;fillColor=none;startSize=0;collapsible=0;recursiveResize=0;expand=0;fontSize=16;" parent="pnoqDllVbGefBGasWEdO-6" vertex="1">
          <mxGeometry x="526" width="244" height="215" as="geometry">
            <mxRectangle width="244" height="215" as="alternateBounds" />
          </mxGeometry>
        </mxCell>
        <mxCell id="Bec3HVNdoNUISOMidx-q-2" value="" style="points=[[0.145,0.145,0],[0.5,0,0],[0.855,0.145,0],[1,0.5,0],[0.855,0.855,0],[0.5,1,0],[0.145,0.855,0],[0,0.5,0]];shape=mxgraph.bpmn.event;html=1;verticalLabelPosition=bottom;labelBackgroundColor=#ffffff;verticalAlign=top;align=center;perimeter=ellipsePerimeter;outlineConnect=0;aspect=fixed;outline=end;symbol=terminate;" parent="pnoqDllVbGefBGasWEdO-9" vertex="1">
          <mxGeometry x="95.5" y="145" width="30" height="30" as="geometry" />
        </mxCell>
        <mxCell id="P8vFjDeXlPCaN-U989TF-17" value="Entrega boletas y factura de venta" style="points=[[0.25,0,0],[0.5,0,0],[0.75,0,0],[1,0.25,0],[1,0.5,0],[1,0.75,0],[0.75,1,0],[0.5,1,0],[0.25,1,0],[0,0.75,0],[0,0.5,0],[0,0.25,0]];shape=mxgraph.bpmn.task;whiteSpace=wrap;rectStyle=rounded;size=10;html=1;container=1;expand=0;collapsible=0;taskMarker=abstract;" vertex="1" parent="pnoqDllVbGefBGasWEdO-9">
          <mxGeometry x="51" y="40" width="119" height="55" as="geometry" />
        </mxCell>
        <mxCell id="P8vFjDeXlPCaN-U989TF-20" style="edgeStyle=orthogonalEdgeStyle;rounded=0;orthogonalLoop=1;jettySize=auto;html=1;entryX=0.5;entryY=0;entryDx=0;entryDy=0;entryPerimeter=0;" edge="1" parent="pnoqDllVbGefBGasWEdO-9" source="P8vFjDeXlPCaN-U989TF-17" target="Bec3HVNdoNUISOMidx-q-2">
          <mxGeometry relative="1" as="geometry" />
        </mxCell>
        <mxCell id="P8vFjDeXlPCaN-U989TF-21" style="edgeStyle=orthogonalEdgeStyle;rounded=0;orthogonalLoop=1;jettySize=auto;html=1;entryX=0;entryY=0.5;entryDx=0;entryDy=0;entryPerimeter=0;" edge="1" parent="pnoqDllVbGefBGasWEdO-6" source="P8vFjDeXlPCaN-U989TF-2" target="Bec3HVNdoNUISOMidx-q-2">
          <mxGeometry relative="1" as="geometry" />
        </mxCell>
        <mxCell id="P8vFjDeXlPCaN-U989TF-6" style="edgeStyle=orthogonalEdgeStyle;rounded=0;orthogonalLoop=1;jettySize=auto;html=1;entryX=0;entryY=0.5;entryDx=0;entryDy=0;entryPerimeter=0;" edge="1" parent="pnoqDllVbGefBGasWEdO-1" source="P8vFjDeXlPCaN-U989TF-1" target="P8vFjDeXlPCaN-U989TF-3">
          <mxGeometry relative="1" as="geometry" />
        </mxCell>
        <mxCell id="P8vFjDeXlPCaN-U989TF-9" style="edgeStyle=orthogonalEdgeStyle;rounded=0;orthogonalLoop=1;jettySize=auto;html=1;" edge="1" parent="pnoqDllVbGefBGasWEdO-1" source="FgiiflSu3p7hEkr1707w-2" target="FgiiflSu3p7hEkr1707w-3">
          <mxGeometry relative="1" as="geometry" />
        </mxCell>
        <mxCell id="P8vFjDeXlPCaN-U989TF-14" style="edgeStyle=orthogonalEdgeStyle;rounded=0;orthogonalLoop=1;jettySize=auto;html=1;entryX=0.5;entryY=0;entryDx=0;entryDy=0;entryPerimeter=0;" edge="1" parent="pnoqDllVbGefBGasWEdO-1" source="P8vFjDeXlPCaN-U989TF-3" target="P8vFjDeXlPCaN-U989TF-13">
          <mxGeometry relative="1" as="geometry" />
        </mxCell>
        <mxCell id="P8vFjDeXlPCaN-U989TF-18" style="edgeStyle=orthogonalEdgeStyle;rounded=0;orthogonalLoop=1;jettySize=auto;html=1;entryX=0;entryY=0.5;entryDx=0;entryDy=0;entryPerimeter=0;" edge="1" parent="pnoqDllVbGefBGasWEdO-1" source="P8vFjDeXlPCaN-U989TF-13" target="P8vFjDeXlPCaN-U989TF-15">
          <mxGeometry relative="1" as="geometry">
            <Array as="points">
              <mxPoint x="500" y="334" />
              <mxPoint x="500" y="125" />
            </Array>
          </mxGeometry>
        </mxCell>
        <mxCell id="P8vFjDeXlPCaN-U989TF-19" style="edgeStyle=orthogonalEdgeStyle;rounded=0;orthogonalLoop=1;jettySize=auto;html=1;" edge="1" parent="pnoqDllVbGefBGasWEdO-1" source="P8vFjDeXlPCaN-U989TF-15" target="P8vFjDeXlPCaN-U989TF-17">
          <mxGeometry relative="1" as="geometry" />
        </mxCell>
      </root>
    </mxGraphModel>
  </diagram>
  <diagram id="TJCYYqDkxtCBFc2ZwhgP" name="Venta - Objetivo">
    <mxGraphModel dx="1626" dy="749" grid="1" gridSize="10" guides="1" tooltips="1" connect="1" arrows="1" fold="1" page="1" pageScale="1" pageWidth="827" pageHeight="1169" math="0" shadow="0">
      <root>
        <mxCell id="0" />
        <mxCell id="1" parent="0" />
        <mxCell id="5KU1KGUAaPx5UyRyIHYl-1" value="Flujo de venta de boletas - Objetivo" style="shape=table;childLayout=tableLayout;startSize=40;collapsible=0;recursiveResize=0;expand=0;fontSize=16;fontStyle=1;whiteSpace=wrap;" parent="1" vertex="1">
          <mxGeometry x="140" y="40" width="990" height="530" as="geometry" />
        </mxCell>
        <mxCell id="5KU1KGUAaPx5UyRyIHYl-2" value="Cliente" style="shape=tableRow;horizontal=0;swimlaneHead=0;swimlaneBody=0;top=0;left=0;strokeColor=inherit;bottom=0;right=0;dropTarget=0;fontStyle=1;fillColor=none;points=[[0,0.5],[1,0.5]];portConstraint=eastwest;startSize=40;collapsible=0;recursiveResize=0;expand=0;fontSize=16;" parent="5KU1KGUAaPx5UyRyIHYl-1" vertex="1">
          <mxGeometry y="40" width="990" height="245" as="geometry" />
        </mxCell>
        <mxCell id="5KU1KGUAaPx5UyRyIHYl-3" value="Estado inicial" style="swimlane;swimlaneHead=0;swimlaneBody=0;fontStyle=1;strokeColor=inherit;connectable=0;fillColor=none;startSize=40;collapsible=0;recursiveResize=0;expand=0;fontSize=16;" parent="5KU1KGUAaPx5UyRyIHYl-2" vertex="1">
          <mxGeometry x="40" width="317" height="245" as="geometry">
            <mxRectangle width="317" height="245" as="alternateBounds" />
          </mxGeometry>
        </mxCell>
        <mxCell id="y1_HN_2fSA6bHPVpqLgI-8" style="edgeStyle=orthogonalEdgeStyle;rounded=0;orthogonalLoop=1;jettySize=auto;html=1;" parent="5KU1KGUAaPx5UyRyIHYl-3" source="5KU1KGUAaPx5UyRyIHYl-4" target="5KU1KGUAaPx5UyRyIHYl-5" edge="1">
          <mxGeometry relative="1" as="geometry" />
        </mxCell>
        <mxCell id="5KU1KGUAaPx5UyRyIHYl-4" value="" style="points=[[0.145,0.145,0],[0.5,0,0],[0.855,0.145,0],[1,0.5,0],[0.855,0.855,0],[0.5,1,0],[0.145,0.855,0],[0,0.5,0]];shape=mxgraph.bpmn.event;html=1;verticalLabelPosition=bottom;labelBackgroundColor=#ffffff;verticalAlign=top;align=center;perimeter=ellipsePerimeter;outlineConnect=0;aspect=fixed;outline=standard;symbol=general;" parent="5KU1KGUAaPx5UyRyIHYl-3" vertex="1">
          <mxGeometry x="90" y="50" width="30" height="30" as="geometry" />
        </mxCell>
        <mxCell id="5KU1KGUAaPx5UyRyIHYl-5" value="Ingresa al sistema y busca el evento deseado" style="points=[[0.25,0,0],[0.5,0,0],[0.75,0,0],[1,0.25,0],[1,0.5,0],[1,0.75,0],[0.75,1,0],[0.5,1,0],[0.25,1,0],[0,0.75,0],[0,0.5,0],[0,0.25,0]];shape=mxgraph.bpmn.task;whiteSpace=wrap;rectStyle=rounded;size=10;html=1;container=1;expand=0;collapsible=0;taskMarker=abstract;" parent="5KU1KGUAaPx5UyRyIHYl-3" vertex="1">
          <mxGeometry x="42.5" y="120" width="125" height="60" as="geometry" />
        </mxCell>
        <mxCell id="5KU1KGUAaPx5UyRyIHYl-7" value="Estado intermedio" style="swimlane;swimlaneHead=0;swimlaneBody=0;fontStyle=1;strokeColor=inherit;connectable=0;fillColor=none;startSize=40;collapsible=0;recursiveResize=0;expand=0;fontSize=16;" parent="5KU1KGUAaPx5UyRyIHYl-2" vertex="1">
          <mxGeometry x="357" width="263" height="245" as="geometry">
            <mxRectangle width="263" height="245" as="alternateBounds" />
          </mxGeometry>
        </mxCell>
        <mxCell id="5KU1KGUAaPx5UyRyIHYl-8" value="Selecciona la cantidad de boletas" style="points=[[0.25,0,0],[0.5,0,0],[0.75,0,0],[1,0.25,0],[1,0.5,0],[1,0.75,0],[0.75,1,0],[0.5,1,0],[0.25,1,0],[0,0.75,0],[0,0.5,0],[0,0.25,0]];shape=mxgraph.bpmn.task;whiteSpace=wrap;rectStyle=rounded;size=10;html=1;container=1;expand=0;collapsible=0;taskMarker=abstract;" parent="5KU1KGUAaPx5UyRyIHYl-7" vertex="1">
          <mxGeometry x="87" y="62.5" width="89" height="57.5" as="geometry" />
        </mxCell>
        <mxCell id="5KU1KGUAaPx5UyRyIHYl-9" value="Estado final" style="swimlane;swimlaneHead=0;swimlaneBody=0;fontStyle=1;strokeColor=inherit;connectable=0;fillColor=none;startSize=40;collapsible=0;recursiveResize=0;expand=0;fontSize=16;" parent="5KU1KGUAaPx5UyRyIHYl-2" vertex="1">
          <mxGeometry x="620" width="370" height="245" as="geometry">
            <mxRectangle width="370" height="245" as="alternateBounds" />
          </mxGeometry>
        </mxCell>
        <mxCell id="5KU1KGUAaPx5UyRyIHYl-10" value="Selecciona medio de pago y realiza el pago" style="points=[[0.25,0,0],[0.5,0,0],[0.75,0,0],[1,0.25,0],[1,0.5,0],[1,0.75,0],[0.75,1,0],[0.5,1,0],[0.25,1,0],[0,0.75,0],[0,0.5,0],[0,0.25,0]];shape=mxgraph.bpmn.task;whiteSpace=wrap;rectStyle=rounded;size=10;html=1;container=1;expand=0;collapsible=0;taskMarker=abstract;" parent="5KU1KGUAaPx5UyRyIHYl-9" vertex="1">
          <mxGeometry x="24" y="60" width="99.5" height="60" as="geometry" />
        </mxCell>
        <mxCell id="5KU1KGUAaPx5UyRyIHYl-11" value="Sistema" style="shape=tableRow;horizontal=0;swimlaneHead=0;swimlaneBody=0;top=0;left=0;strokeColor=inherit;bottom=0;right=0;dropTarget=0;fontStyle=1;fillColor=none;points=[[0,0.5],[1,0.5]];portConstraint=eastwest;startSize=40;collapsible=0;recursiveResize=0;expand=0;fontSize=16;verticalAlign=middle;whiteSpace=wrap;" parent="5KU1KGUAaPx5UyRyIHYl-1" vertex="1">
          <mxGeometry y="285" width="990" height="245" as="geometry" />
        </mxCell>
        <mxCell id="5KU1KGUAaPx5UyRyIHYl-12" value="" style="swimlane;swimlaneHead=0;swimlaneBody=0;fontStyle=1;connectable=0;strokeColor=inherit;fillColor=none;startSize=0;collapsible=0;recursiveResize=0;expand=0;fontSize=16;" parent="5KU1KGUAaPx5UyRyIHYl-11" vertex="1">
          <mxGeometry x="40" width="317" height="245" as="geometry">
            <mxRectangle width="317" height="245" as="alternateBounds" />
          </mxGeometry>
        </mxCell>
        <mxCell id="5KU1KGUAaPx5UyRyIHYl-13" value="" style="points=[[0.25,0.25,0],[0.5,0,0],[0.75,0.25,0],[1,0.5,0],[0.75,0.75,0],[0.5,1,0],[0.25,0.75,0],[0,0.5,0]];shape=mxgraph.bpmn.gateway2;html=1;verticalLabelPosition=bottom;labelBackgroundColor=#ffffff;verticalAlign=top;align=center;perimeter=rhombusPerimeter;outlineConnect=0;outline=none;symbol=none;" parent="5KU1KGUAaPx5UyRyIHYl-12" vertex="1">
          <mxGeometry x="80" y="23.759999999999998" width="50" height="45" as="geometry" />
        </mxCell>
        <mxCell id="5KU1KGUAaPx5UyRyIHYl-14" value="Verifica disponibilidad" style="text;html=1;align=center;verticalAlign=middle;whiteSpace=wrap;rounded=0;" parent="5KU1KGUAaPx5UyRyIHYl-12" vertex="1">
          <mxGeometry x="20" y="30.95" width="40" height="13.12" as="geometry" />
        </mxCell>
        <mxCell id="5KU1KGUAaPx5UyRyIHYl-15" value="Informa disponibilid&lt;span style=&quot;color: rgba(0, 0, 0, 0); font-family: monospace; font-size: 0px; text-align: start; text-wrap: nowrap;&quot;&gt;%3CmxGraphModel%3E%3Croot%3E%3CmxCell%20id%3D%220%22%2F%3E%3CmxCell%20id%3D%221%22%20parent%3D%220%22%2F%3E%3CmxCell%20id%3D%222%22%20value%3D%22Pregunta%20disponibilidad%20de%20boletas%22%20style%3D%22points%3D%5B%5B0.25%2C0%2C0%5D%2C%5B0.5%2C0%2C0%5D%2C%5B0.75%2C0%2C0%5D%2C%5B1%2C0.25%2C0%5D%2C%5B1%2C0.5%2C0%5D%2C%5B1%2C0.75%2C0%5D%2C%5B0.75%2C1%2C0%5D%2C%5B0.5%2C1%2C0%5D%2C%5B0.25%2C1%2C0%5D%2C%5B0%2C0.75%2C0%5D%2C%5B0%2C0.5%2C0%5D%2C%5B0%2C0.25%2C0%5D%5D%3Bshape%3Dmxgraph.bpmn.task%3BwhiteSpace%3Dwrap%3BrectStyle%3Drounded%3Bsize%3D10%3Bhtml%3D1%3Bcontainer%3D1%3Bexpand%3D0%3Bcollapsible%3D0%3BtaskMarker%3Dabstract%3B%22%20vertex%3D%221%22%20parent%3D%221%22%3E%3CmxGeometry%20x%3D%22243.5%22%20y%3D%22112.5%22%20width%3D%2280%22%20height%3D%2250%22%20as%3D%22geometry%22%2F%3E%3C%2FmxCell%3E%3C%2Froot%3E%3C%2FmxGraphModel%3E&lt;/span&gt;ad y precio por boleta" style="points=[[0.25,0,0],[0.5,0,0],[0.75,0,0],[1,0.25,0],[1,0.5,0],[1,0.75,0],[0.75,1,0],[0.5,1,0],[0.25,1,0],[0,0.75,0],[0,0.5,0],[0,0.25,0]];shape=mxgraph.bpmn.task;whiteSpace=wrap;rectStyle=rounded;size=10;html=1;container=1;expand=0;collapsible=0;taskMarker=abstract;" parent="5KU1KGUAaPx5UyRyIHYl-12" vertex="1">
          <mxGeometry x="180" y="15" width="84" height="62.51" as="geometry" />
        </mxCell>
        <mxCell id="5KU1KGUAaPx5UyRyIHYl-16" value="Informa que no hay disponibilid&lt;span style=&quot;color: rgba(0, 0, 0, 0); font-family: monospace; font-size: 0px; text-align: start; text-wrap: nowrap;&quot;&gt;%3CmxGraphModel%3E%3Croot%3E%3CmxCell%20id%3D%220%22%2F%3E%3CmxCell%20id%3D%221%22%20parent%3D%220%22%2F%3E%3CmxCell%20id%3D%222%22%20value%3D%22Pregunta%20disponibilidad%20de%20boletas%22%20style%3D%22points%3D%5B%5B0.25%2C0%2C0%5D%2C%5B0.5%2C0%2C0%5D%2C%5B0.75%2C0%2C0%5D%2C%5B1%2C0.25%2C0%5D%2C%5B1%2C0.5%2C0%5D%2C%5B1%2C0.75%2C0%5D%2C%5B0.75%2C1%2C0%5D%2C%5B0.5%2C1%2C0%5D%2C%5B0.25%2C1%2C0%5D%2C%5B0%2C0.75%2C0%5D%2C%5B0%2C0.5%2C0%5D%2C%5B0%2C0.25%2C0%5D%5D%3Bshape%3Dmxgraph.bpmn.task%3BwhiteSpace%3Dwrap%3BrectStyle%3Drounded%3Bsize%3D10%3Bhtml%3D1%3Bcontainer%3D1%3Bexpand%3D0%3Bcollapsible%3D0%3BtaskMarker%3Dabstract%3B%22%20vertex%3D%221%22%20parent%3D%221%22%3E%3CmxGeometry%20x%3D%22243.5%22%20y%3D%22112.5%22%20width%3D%2280%22%20height%3D%2250%22%20as%3D%22geometry%22%2F%3E%3C%2FmxCell%3E%3C%2Froot%3E%3C%2FmxGraphModel%3E&lt;/span&gt;ad" style="points=[[0.25,0,0],[0.5,0,0],[0.75,0,0],[1,0.25,0],[1,0.5,0],[1,0.75,0],[0.75,1,0],[0.5,1,0],[0.25,1,0],[0,0.75,0],[0,0.5,0],[0,0.25,0]];shape=mxgraph.bpmn.task;whiteSpace=wrap;rectStyle=rounded;size=10;html=1;container=1;expand=0;collapsible=0;taskMarker=abstract;" parent="5KU1KGUAaPx5UyRyIHYl-12" vertex="1">
          <mxGeometry x="65" y="155" width="80" height="50" as="geometry" />
        </mxCell>
        <mxCell id="5KU1KGUAaPx5UyRyIHYl-17" style="edgeStyle=orthogonalEdgeStyle;rounded=0;orthogonalLoop=1;jettySize=auto;html=1;entryX=0;entryY=0.5;entryDx=0;entryDy=0;entryPerimeter=0;" parent="5KU1KGUAaPx5UyRyIHYl-12" source="5KU1KGUAaPx5UyRyIHYl-13" target="5KU1KGUAaPx5UyRyIHYl-15" edge="1">
          <mxGeometry relative="1" as="geometry" />
        </mxCell>
        <mxCell id="5KU1KGUAaPx5UyRyIHYl-18" style="edgeStyle=orthogonalEdgeStyle;rounded=0;orthogonalLoop=1;jettySize=auto;html=1;entryX=0.5;entryY=0;entryDx=0;entryDy=0;entryPerimeter=0;" parent="5KU1KGUAaPx5UyRyIHYl-12" source="5KU1KGUAaPx5UyRyIHYl-13" target="5KU1KGUAaPx5UyRyIHYl-16" edge="1">
          <mxGeometry relative="1" as="geometry" />
        </mxCell>
        <mxCell id="5KU1KGUAaPx5UyRyIHYl-19" value="SI" style="text;html=1;align=center;verticalAlign=middle;whiteSpace=wrap;rounded=0;" parent="5KU1KGUAaPx5UyRyIHYl-12" vertex="1">
          <mxGeometry x="130" y="20.94999999999999" width="10" height="10" as="geometry" />
        </mxCell>
        <mxCell id="5KU1KGUAaPx5UyRyIHYl-20" value="NO" style="text;html=1;align=center;verticalAlign=middle;whiteSpace=wrap;rounded=0;" parent="5KU1KGUAaPx5UyRyIHYl-12" vertex="1">
          <mxGeometry x="80" y="85" width="20" height="10" as="geometry" />
        </mxCell>
        <mxCell id="5KU1KGUAaPx5UyRyIHYl-21" value="" style="swimlane;swimlaneHead=0;swimlaneBody=0;fontStyle=1;connectable=0;strokeColor=inherit;fillColor=none;startSize=0;collapsible=0;recursiveResize=0;expand=0;fontSize=16;" parent="5KU1KGUAaPx5UyRyIHYl-11" vertex="1">
          <mxGeometry x="357" width="263" height="245" as="geometry">
            <mxRectangle width="263" height="245" as="alternateBounds" />
          </mxGeometry>
        </mxCell>
        <mxCell id="5KU1KGUAaPx5UyRyIHYl-22" value="Separa las boletas, informa el valor a pagar dando opciones de pago" style="points=[[0.25,0,0],[0.5,0,0],[0.75,0,0],[1,0.25,0],[1,0.5,0],[1,0.75,0],[0.75,1,0],[0.5,1,0],[0.25,1,0],[0,0.75,0],[0,0.5,0],[0,0.25,0]];shape=mxgraph.bpmn.task;whiteSpace=wrap;rectStyle=rounded;size=10;html=1;container=1;expand=0;collapsible=0;taskMarker=abstract;" parent="5KU1KGUAaPx5UyRyIHYl-21" vertex="1">
          <mxGeometry x="75.5" y="52.04" width="111" height="75.93" as="geometry" />
        </mxCell>
        <mxCell id="5KU1KGUAaPx5UyRyIHYl-23" value="" style="swimlane;swimlaneHead=0;swimlaneBody=0;fontStyle=1;connectable=0;strokeColor=inherit;fillColor=none;startSize=0;collapsible=0;recursiveResize=0;expand=0;fontSize=16;" parent="5KU1KGUAaPx5UyRyIHYl-11" vertex="1">
          <mxGeometry x="620" width="370" height="245" as="geometry">
            <mxRectangle width="370" height="245" as="alternateBounds" />
          </mxGeometry>
        </mxCell>
        <mxCell id="5KU1KGUAaPx5UyRyIHYl-24" value="" style="points=[[0.145,0.145,0],[0.5,0,0],[0.855,0.145,0],[1,0.5,0],[0.855,0.855,0],[0.5,1,0],[0.145,0.855,0],[0,0.5,0]];shape=mxgraph.bpmn.event;html=1;verticalLabelPosition=bottom;labelBackgroundColor=#ffffff;verticalAlign=top;align=center;perimeter=ellipsePerimeter;outlineConnect=0;aspect=fixed;outline=end;symbol=terminate;" parent="5KU1KGUAaPx5UyRyIHYl-23" vertex="1">
          <mxGeometry x="41" y="165" width="30" height="30" as="geometry" />
        </mxCell>
        <mxCell id="5KU1KGUAaPx5UyRyIHYl-25" value="Verifica la recepcion del pago" style="points=[[0.25,0,0],[0.5,0,0],[0.75,0,0],[1,0.25,0],[1,0.5,0],[1,0.75,0],[0.75,1,0],[0.5,1,0],[0.25,1,0],[0,0.75,0],[0,0.5,0],[0,0.25,0]];shape=mxgraph.bpmn.task;whiteSpace=wrap;rectStyle=rounded;size=10;html=1;container=1;expand=0;collapsible=0;taskMarker=abstract;" parent="5KU1KGUAaPx5UyRyIHYl-23" vertex="1">
          <mxGeometry x="14.25" y="15" width="119" height="55" as="geometry" />
        </mxCell>
        <mxCell id="y1_HN_2fSA6bHPVpqLgI-10" style="edgeStyle=orthogonalEdgeStyle;rounded=0;orthogonalLoop=1;jettySize=auto;html=1;" parent="5KU1KGUAaPx5UyRyIHYl-23" source="y1_HN_2fSA6bHPVpqLgI-2" target="y1_HN_2fSA6bHPVpqLgI-9" edge="1">
          <mxGeometry relative="1" as="geometry" />
        </mxCell>
        <mxCell id="y1_HN_2fSA6bHPVpqLgI-2" value="" style="points=[[0.25,0.25,0],[0.5,0,0],[0.75,0.25,0],[1,0.5,0],[0.75,0.75,0],[0.5,1,0],[0.25,0.75,0],[0,0.5,0]];shape=mxgraph.bpmn.gateway2;html=1;verticalLabelPosition=bottom;labelBackgroundColor=#ffffff;verticalAlign=top;align=center;perimeter=rhombusPerimeter;outlineConnect=0;outline=none;symbol=none;" parent="5KU1KGUAaPx5UyRyIHYl-23" vertex="1">
          <mxGeometry x="164" y="20" width="50" height="45" as="geometry" />
        </mxCell>
        <mxCell id="y1_HN_2fSA6bHPVpqLgI-3" style="edgeStyle=orthogonalEdgeStyle;rounded=0;orthogonalLoop=1;jettySize=auto;html=1;entryX=0;entryY=0.5;entryDx=0;entryDy=0;entryPerimeter=0;" parent="5KU1KGUAaPx5UyRyIHYl-23" source="5KU1KGUAaPx5UyRyIHYl-25" target="y1_HN_2fSA6bHPVpqLgI-2" edge="1">
          <mxGeometry relative="1" as="geometry" />
        </mxCell>
        <mxCell id="y1_HN_2fSA6bHPVpqLgI-4" value="Envia factura y boletas al correo del cliente" style="points=[[0.25,0,0],[0.5,0,0],[0.75,0,0],[1,0.25,0],[1,0.5,0],[1,0.75,0],[0.75,1,0],[0.5,1,0],[0.25,1,0],[0,0.75,0],[0,0.5,0],[0,0.25,0]];shape=mxgraph.bpmn.task;whiteSpace=wrap;rectStyle=rounded;size=10;html=1;container=1;expand=0;collapsible=0;taskMarker=abstract;" parent="5KU1KGUAaPx5UyRyIHYl-23" vertex="1">
          <mxGeometry x="143.5" y="144.38" width="91" height="71.25" as="geometry" />
        </mxCell>
        <mxCell id="y1_HN_2fSA6bHPVpqLgI-5" style="edgeStyle=orthogonalEdgeStyle;rounded=0;orthogonalLoop=1;jettySize=auto;html=1;entryX=0.5;entryY=0;entryDx=0;entryDy=0;entryPerimeter=0;" parent="5KU1KGUAaPx5UyRyIHYl-23" source="y1_HN_2fSA6bHPVpqLgI-2" target="y1_HN_2fSA6bHPVpqLgI-4" edge="1">
          <mxGeometry relative="1" as="geometry" />
        </mxCell>
        <mxCell id="y1_HN_2fSA6bHPVpqLgI-6" value="SI" style="text;html=1;align=center;verticalAlign=middle;whiteSpace=wrap;rounded=0;" parent="5KU1KGUAaPx5UyRyIHYl-23" vertex="1">
          <mxGeometry x="157" y="75" width="30" height="10" as="geometry" />
        </mxCell>
        <mxCell id="y1_HN_2fSA6bHPVpqLgI-7" style="edgeStyle=orthogonalEdgeStyle;rounded=0;orthogonalLoop=1;jettySize=auto;html=1;entryX=1;entryY=0.5;entryDx=0;entryDy=0;entryPerimeter=0;" parent="5KU1KGUAaPx5UyRyIHYl-23" source="y1_HN_2fSA6bHPVpqLgI-4" target="5KU1KGUAaPx5UyRyIHYl-24" edge="1">
          <mxGeometry relative="1" as="geometry" />
        </mxCell>
        <mxCell id="y1_HN_2fSA6bHPVpqLgI-9" value="Informa al cliente el error&amp;nbsp;" style="points=[[0.25,0,0],[0.5,0,0],[0.75,0,0],[1,0.25,0],[1,0.5,0],[1,0.75,0],[0.75,1,0],[0.5,1,0],[0.25,1,0],[0,0.75,0],[0,0.5,0],[0,0.25,0]];shape=mxgraph.bpmn.task;whiteSpace=wrap;rectStyle=rounded;size=10;html=1;container=1;expand=0;collapsible=0;taskMarker=abstract;" parent="5KU1KGUAaPx5UyRyIHYl-23" vertex="1">
          <mxGeometry x="270" y="17.5" width="90" height="50" as="geometry" />
        </mxCell>
        <mxCell id="y1_HN_2fSA6bHPVpqLgI-11" style="edgeStyle=orthogonalEdgeStyle;rounded=0;orthogonalLoop=1;jettySize=auto;html=1;entryX=0.5;entryY=1;entryDx=0;entryDy=0;entryPerimeter=0;" parent="5KU1KGUAaPx5UyRyIHYl-23" source="y1_HN_2fSA6bHPVpqLgI-9" target="5KU1KGUAaPx5UyRyIHYl-24" edge="1">
          <mxGeometry relative="1" as="geometry">
            <Array as="points">
              <mxPoint x="320" y="235" />
              <mxPoint x="56" y="235" />
            </Array>
          </mxGeometry>
        </mxCell>
        <mxCell id="y1_HN_2fSA6bHPVpqLgI-12" value="NO" style="text;html=1;align=center;verticalAlign=middle;whiteSpace=wrap;rounded=0;" parent="5KU1KGUAaPx5UyRyIHYl-23" vertex="1">
          <mxGeometry x="214" y="25" width="30" height="10" as="geometry" />
        </mxCell>
        <mxCell id="5KU1KGUAaPx5UyRyIHYl-27" style="edgeStyle=orthogonalEdgeStyle;rounded=0;orthogonalLoop=1;jettySize=auto;html=1;entryX=0;entryY=0.5;entryDx=0;entryDy=0;entryPerimeter=0;" parent="5KU1KGUAaPx5UyRyIHYl-11" source="5KU1KGUAaPx5UyRyIHYl-16" target="5KU1KGUAaPx5UyRyIHYl-24" edge="1">
          <mxGeometry relative="1" as="geometry" />
        </mxCell>
        <mxCell id="5KU1KGUAaPx5UyRyIHYl-28" style="edgeStyle=orthogonalEdgeStyle;rounded=0;orthogonalLoop=1;jettySize=auto;html=1;entryX=0;entryY=0.5;entryDx=0;entryDy=0;entryPerimeter=0;" parent="5KU1KGUAaPx5UyRyIHYl-1" source="5KU1KGUAaPx5UyRyIHYl-15" target="5KU1KGUAaPx5UyRyIHYl-8" edge="1">
          <mxGeometry relative="1" as="geometry" />
        </mxCell>
        <mxCell id="5KU1KGUAaPx5UyRyIHYl-29" style="edgeStyle=orthogonalEdgeStyle;rounded=0;orthogonalLoop=1;jettySize=auto;html=1;" parent="5KU1KGUAaPx5UyRyIHYl-1" source="5KU1KGUAaPx5UyRyIHYl-5" target="5KU1KGUAaPx5UyRyIHYl-13" edge="1">
          <mxGeometry relative="1" as="geometry" />
        </mxCell>
        <mxCell id="5KU1KGUAaPx5UyRyIHYl-30" style="edgeStyle=orthogonalEdgeStyle;rounded=0;orthogonalLoop=1;jettySize=auto;html=1;entryX=0.5;entryY=0;entryDx=0;entryDy=0;entryPerimeter=0;" parent="5KU1KGUAaPx5UyRyIHYl-1" source="5KU1KGUAaPx5UyRyIHYl-8" target="5KU1KGUAaPx5UyRyIHYl-22" edge="1">
          <mxGeometry relative="1" as="geometry" />
        </mxCell>
        <mxCell id="5KU1KGUAaPx5UyRyIHYl-32" style="edgeStyle=orthogonalEdgeStyle;rounded=0;orthogonalLoop=1;jettySize=auto;html=1;" parent="5KU1KGUAaPx5UyRyIHYl-1" source="5KU1KGUAaPx5UyRyIHYl-10" target="5KU1KGUAaPx5UyRyIHYl-25" edge="1">
          <mxGeometry relative="1" as="geometry" />
        </mxCell>
        <mxCell id="y1_HN_2fSA6bHPVpqLgI-1" style="edgeStyle=orthogonalEdgeStyle;rounded=0;orthogonalLoop=1;jettySize=auto;html=1;entryX=0;entryY=0.5;entryDx=0;entryDy=0;entryPerimeter=0;" parent="5KU1KGUAaPx5UyRyIHYl-1" source="5KU1KGUAaPx5UyRyIHYl-22" target="5KU1KGUAaPx5UyRyIHYl-10" edge="1">
          <mxGeometry relative="1" as="geometry" />
        </mxCell>
      </root>
    </mxGraphModel>
  </diagram>
</mxfile>
